<svg width="605" height="302" xmlns="http://www.w3.org/2000/svg" xmlns:xlink="http://www.w3.org/1999/xlink" xml:space="preserve" overflow="hidden"><g><g><path d="M19.5954 126.603C19.5954 107.186 35.3358 91.4453 54.7527 91.4453L558.854 91.4453C578.268 91.4453 594.01 107.186 594.01 126.603L594.01 267.227C594.01 286.644 578.268 302.384 558.854 302.384L54.7527 302.384C35.3358 302.384 19.5954 286.644 19.5954 267.227Z" fill="#720035" fill-rule="evenodd" fill-opacity="1" transform="matrix(1.00102 0 0 1 -5.38462 -14.9847)"/><text fill="#FFFFFF" fill-opacity="1" font-family="PT Sans,PT Sans_MSFontService,sans-serif" font-style="normal" font-variant="normal" font-weight="700" font-stretch="normal" font-size="33" text-anchor="start" direction="ltr" writing-mode="lr-tb" unicode-bidi="normal" text-decoration="none" transform="matrix(0.384615 0 0 0.384224 29.2473 101)">Organisation</text><path d="M36.3092 186.733C36.3092 175.168 45.6846 165.793 57.2497 165.793L550.977 165.793C562.542 165.793 571.917 175.168 571.917 186.733L571.917 270.493C571.917 282.058 562.542 291.434 550.977 291.434L57.2497 291.434C45.6846 291.434 36.3092 282.058 36.3092 270.493Z" stroke="#545453" stroke-width="1.92112" stroke-linecap="butt" stroke-linejoin="miter" stroke-miterlimit="8" stroke-opacity="1" fill="#CACACB" fill-rule="evenodd" fill-opacity="1" transform="matrix(1.00102 0 0 1 -5.38462 -14.9847)"/><text fill="#2C2C2C" fill-opacity="1" font-family="PT Sans,PT Sans_MSFontService,sans-serif" font-style="normal" font-variant="normal" font-weight="700" font-stretch="normal" font-size="33" text-anchor="start" direction="ltr" writing-mode="lr-tb" unicode-bidi="normal" text-decoration="none" transform="matrix(0.384615 0 0 0.384224 41.58 171)">Mandant</text><path d="M113.538 104.215C113.538 102.786 114.697 101.627 116.126 101.627L343.022 101.627C344.451 101.627 345.609 102.786 345.609 104.215L345.609 150.526C345.609 151.955 344.451 153.113 343.022 153.113L116.126 153.113C114.697 153.113 113.538 151.955 113.538 150.526Z" stroke="#545453" stroke-width="1.92112" stroke-linecap="butt" stroke-linejoin="miter" stroke-miterlimit="8" stroke-opacity="1" fill="#720035" fill-rule="evenodd" fill-opacity="1" transform="matrix(1.00102 0 0 1 -5.38462 -14.9847)"/><text fill="#FFFFFF" fill-opacity="1" font-family="Calibri,Calibri_MSFontService,sans-serif" font-style="normal" font-variant="normal" font-weight="400" font-stretch="normal" font-size="23" text-anchor="start" direction="ltr" writing-mode="lr-tb" unicode-bidi="normal" text-decoration="none" transform="matrix(0.384615 0 0 0.384224 182.83 105)">•</text><text fill="#FFFFFF" fill-opacity="1" font-family="Calibri,Calibri_MSFontService,sans-serif" font-style="normal" font-variant="normal" font-weight="400" font-stretch="normal" font-size="23" text-anchor="start" direction="ltr" writing-mode="lr-tb" unicode-bidi="normal" text-decoration="none" transform="matrix(0.384615 0 0 0.384224 189.32 105)">Erstellt Organisations</text><text fill="#FFFFFF" fill-opacity="1" font-family="Calibri,Calibri_MSFontService,sans-serif" font-style="normal" font-variant="normal" font-weight="400" font-stretch="normal" font-size="23" text-anchor="start" direction="ltr" writing-mode="lr-tb" unicode-bidi="normal" text-decoration="none" transform="matrix(0.384615 0 0 0.384224 266.805 105)">-</text><text fill="#FFFFFF" fill-opacity="1" font-family="Calibri,Calibri_MSFontService,sans-serif" font-style="normal" font-variant="normal" font-weight="400" font-stretch="normal" font-size="23" text-anchor="start" direction="ltr" writing-mode="lr-tb" unicode-bidi="normal" text-decoration="none" transform="matrix(0.384615 0 0 0.384224 269.529 105)">Administratoren</text><text fill="#FFFFFF" fill-opacity="1" font-family="Calibri,Calibri_MSFontService,sans-serif" font-style="normal" font-variant="normal" font-weight="400" font-stretch="normal" font-size="23" text-anchor="start" direction="ltr" writing-mode="lr-tb" unicode-bidi="normal" text-decoration="none" transform="matrix(0.384615 0 0 0.384224 182.83 115)">•</text><text fill="#FFFFFF" fill-opacity="1" font-family="Calibri,Calibri_MSFontService,sans-serif" font-style="normal" font-variant="normal" font-weight="400" font-stretch="normal" font-size="23" text-anchor="start" direction="ltr" writing-mode="lr-tb" unicode-bidi="normal" text-decoration="none" transform="matrix(0.384615 0 0 0.384224 189.32 115)">Erstellt Mandanten</text><text fill="#FFFFFF" fill-opacity="1" font-family="Calibri,Calibri_MSFontService,sans-serif" font-style="normal" font-variant="normal" font-weight="400" font-stretch="normal" font-size="23" text-anchor="start" direction="ltr" writing-mode="lr-tb" unicode-bidi="normal" text-decoration="none" transform="matrix(0.384615 0 0 0.384224 182.83 126)">•</text><text fill="#FFFFFF" fill-opacity="1" font-family="Calibri,Calibri_MSFontService,sans-serif" font-style="normal" font-variant="normal" font-weight="400" font-stretch="normal" font-size="23" text-anchor="start" direction="ltr" writing-mode="lr-tb" unicode-bidi="normal" text-decoration="none" transform="matrix(0.384615 0 0 0.384224 189.32 126)">Erstellt Mandanten</text><text fill="#FFFFFF" fill-opacity="1" font-family="Calibri,Calibri_MSFontService,sans-serif" font-style="normal" font-variant="normal" font-weight="400" font-stretch="normal" font-size="23" text-anchor="start" direction="ltr" writing-mode="lr-tb" unicode-bidi="normal" text-decoration="none" transform="matrix(0.384615 0 0 0.384224 259.385 126)">-</text><text fill="#FFFFFF" fill-opacity="1" font-family="Calibri,Calibri_MSFontService,sans-serif" font-style="normal" font-variant="normal" font-weight="400" font-stretch="normal" font-size="23" text-anchor="start" direction="ltr" writing-mode="lr-tb" unicode-bidi="normal" text-decoration="none" transform="matrix(0.384615 0 0 0.384224 262.109 126)">Administratoren</text><g><g><g><path d="M11.7669 13.4478C15.4803 13.4478 18.4908 10.4374 18.4908 6.72392 18.4908 3.0104 15.4803-1.49301e-15 11.7669-1.49301e-15 8.05337-2.98602e-15 5.04294 3.0104 5.04294 6.72392 5.04294 10.4374 8.05337 13.4478 11.7669 13.4478ZM16.8098 16.8098C16.8136 16.2483 16.96 15.697 17.2353 15.2076 16.9832 15.1813 16.7363 15.1288 16.4736 15.1288L15.5963 15.1288C13.1663 16.2494 10.3674 16.2494 7.93737 15.1288L7.06011 15.1288C3.16128 15.1297 0.000869664 18.2901-3.20622e-07 22.1889L0 24.3742C-3.73252e-16 25.7668 1.1289 26.8957 2.52147 26.8957L17.2773 26.8957C16.9752 26.3867 16.8138 25.8066 16.8098 25.2147ZM31.9386 15.1288 30.2576 15.1288 30.2576 10.9264C30.2576 8.60542 28.3761 6.72392 26.0552 6.72392 23.7342 6.72392 21.8527 8.60542 21.8527 10.9264L21.8527 15.1288 20.1718 15.1288C19.2434 15.1288 18.4908 15.8814 18.4908 16.8098L18.4908 25.2147C18.4908 26.1431 19.2434 26.8957 20.1718 26.8957L31.9386 26.8957C32.867 26.8957 33.6196 26.1431 33.6196 25.2147L33.6196 16.8098C33.6196 15.8814 32.867 15.1288 31.9386 15.1288ZM26.0552 22.6932C25.1268 22.6932 24.3742 21.9406 24.3742 21.0122 24.3742 20.0839 25.1268 19.3313 26.0552 19.3313 26.9835 19.3313 27.7362 20.0839 27.7362 21.0122 27.7362 21.9406 26.9835 22.6932 26.0552 22.6932ZM27.7362 15.1288 24.3742 15.1288 24.3742 10.9264C24.3742 9.998 25.1268 9.24539 26.0552 9.24539 26.9835 9.24539 27.7362 9.998 27.7362 10.9264Z" stroke="#545453" stroke-width="1.92112" stroke-linecap="butt" stroke-linejoin="miter" stroke-miterlimit="4" stroke-opacity="1" fill="#E62249" fill-rule="nonzero" fill-opacity="1" transform="matrix(1.00673 0 0 1 126.154 94.1349)"/></g></g></g><path d="M120.454 136.592 184.235 136.592 184.235 145.045 120.454 145.045Z" stroke="#545453" stroke-width="1.92112" stroke-linecap="butt" stroke-linejoin="round" stroke-miterlimit="10" stroke-opacity="1" fill="none" fill-rule="nonzero" transform="matrix(1.00102 0 0 1 -5.38462 -14.9847)"/><text fill="#FFFFFF" fill-opacity="1" font-family="PT Sans,PT Sans_MSFontService,sans-serif" font-style="normal" font-variant="normal" font-weight="400" font-stretch="normal" font-size="15" text-anchor="start" direction="ltr" writing-mode="lr-tb" unicode-bidi="normal" text-decoration="none" transform="matrix(0.384615 0 0 0.384224 119.51 128)">Organisations</text><text fill="#FFFFFF" fill-opacity="1" font-family="PT Sans,PT Sans_MSFontService,sans-serif" font-style="normal" font-variant="normal" font-weight="400" font-stretch="normal" font-size="15" text-anchor="start" direction="ltr" writing-mode="lr-tb" unicode-bidi="normal" text-decoration="none" transform="matrix(0.384615 0 0 0.384224 153.404 128)">-</text><text fill="#FFFFFF" fill-opacity="1" font-family="PT Sans,PT Sans_MSFontService,sans-serif" font-style="normal" font-variant="normal" font-weight="400" font-stretch="normal" font-size="15" text-anchor="start" direction="ltr" writing-mode="lr-tb" unicode-bidi="normal" text-decoration="none" transform="matrix(0.384615 0 0 0.384224 155.488 128)">Admin</text><path d="M113.346 192.166C113.346 190.439 114.747 189.038 116.474 189.038L342.289 189.038C344.017 189.038 345.417 190.439 345.417 192.166L345.417 248.154C345.417 249.882 344.017 251.282 342.289 251.282L116.474 251.282C114.747 251.282 113.346 249.882 113.346 248.154Z" fill="#545453" fill-rule="evenodd" fill-opacity="1" transform="matrix(1.00102 0 0 1 -5.38462 -14.9847)"/><text fill="#FFFFFF" fill-opacity="1" font-family="Calibri,Calibri_MSFontService,sans-serif" font-style="normal" font-variant="normal" font-weight="400" font-stretch="normal" font-size="23" text-anchor="start" direction="ltr" writing-mode="lr-tb" unicode-bidi="normal" text-decoration="none" transform="matrix(0.384615 0 0 0.384224 182.987 187)">•</text><text fill="#FFFFFF" fill-opacity="1" font-family="Calibri,Calibri_MSFontService,sans-serif" font-style="normal" font-variant="normal" font-weight="400" font-stretch="normal" font-size="23" text-anchor="start" direction="ltr" writing-mode="lr-tb" unicode-bidi="normal" text-decoration="none" transform="matrix(0.384615 0 0 0.384224 189.477 187)">Erstellt Mandanten</text><text fill="#FFFFFF" fill-opacity="1" font-family="Calibri,Calibri_MSFontService,sans-serif" font-style="normal" font-variant="normal" font-weight="400" font-stretch="normal" font-size="23" text-anchor="start" direction="ltr" writing-mode="lr-tb" unicode-bidi="normal" text-decoration="none" transform="matrix(0.384615 0 0 0.384224 259.542 187)">-</text><text fill="#FFFFFF" fill-opacity="1" font-family="Calibri,Calibri_MSFontService,sans-serif" font-style="normal" font-variant="normal" font-weight="400" font-stretch="normal" font-size="23" text-anchor="start" direction="ltr" writing-mode="lr-tb" unicode-bidi="normal" text-decoration="none" transform="matrix(0.384615 0 0 0.384224 262.266 187)">Administratoren</text><text fill="#FFFFFF" fill-opacity="1" font-family="Calibri,Calibri_MSFontService,sans-serif" font-style="normal" font-variant="normal" font-weight="400" font-stretch="normal" font-size="23" text-anchor="start" direction="ltr" writing-mode="lr-tb" unicode-bidi="normal" text-decoration="none" transform="matrix(0.384615 0 0 0.384224 182.987 197)">•</text><text fill="#FFFFFF" fill-opacity="1" font-family="Calibri,Calibri_MSFontService,sans-serif" font-style="normal" font-variant="normal" font-weight="400" font-stretch="normal" font-size="23" text-anchor="start" direction="ltr" writing-mode="lr-tb" unicode-bidi="normal" text-decoration="none" transform="matrix(0.384615 0 0 0.384224 189.477 197)">Erstellt Mandanten</text><text fill="#FFFFFF" fill-opacity="1" font-family="Calibri,Calibri_MSFontService,sans-serif" font-style="normal" font-variant="normal" font-weight="400" font-stretch="normal" font-size="23" text-anchor="start" direction="ltr" writing-mode="lr-tb" unicode-bidi="normal" text-decoration="none" transform="matrix(0.384615 0 0 0.384224 259.542 197)">-</text><text fill="#FFFFFF" fill-opacity="1" font-family="Calibri,Calibri_MSFontService,sans-serif" font-style="normal" font-variant="normal" font-weight="400" font-stretch="normal" font-size="23" text-anchor="start" direction="ltr" writing-mode="lr-tb" unicode-bidi="normal" text-decoration="none" transform="matrix(0.384615 0 0 0.384224 262.266 197)">Nutzer</text><text fill="#FFFFFF" fill-opacity="1" font-family="Calibri,Calibri_MSFontService,sans-serif" font-style="normal" font-variant="normal" font-weight="400" font-stretch="normal" font-size="23" text-anchor="start" direction="ltr" writing-mode="lr-tb" unicode-bidi="normal" text-decoration="none" transform="matrix(0.384615 0 0 0.384224 182.987 208)">•</text><text fill="#FFFFFF" fill-opacity="1" font-family="Calibri,Calibri_MSFontService,sans-serif" font-style="normal" font-variant="normal" font-weight="400" font-stretch="normal" font-size="23" text-anchor="start" direction="ltr" writing-mode="lr-tb" unicode-bidi="normal" text-decoration="none" transform="matrix(0.384615 0 0 0.384224 189.477 208)">Template</text><text fill="#FFFFFF" fill-opacity="1" font-family="Calibri,Calibri_MSFontService,sans-serif" font-style="normal" font-variant="normal" font-weight="400" font-stretch="normal" font-size="23" text-anchor="start" direction="ltr" writing-mode="lr-tb" unicode-bidi="normal" text-decoration="none" transform="matrix(0.384615 0 0 0.384224 223.195 208)">-</text><text fill="#FFFFFF" fill-opacity="1" font-family="Calibri,Calibri_MSFontService,sans-serif" font-style="normal" font-variant="normal" font-weight="400" font-stretch="normal" font-size="23" text-anchor="start" direction="ltr" writing-mode="lr-tb" unicode-bidi="normal" text-decoration="none" transform="matrix(0.384615 0 0 0.384224 225.92 208)">Verwaltung</text><text fill="#FFFFFF" fill-opacity="1" font-family="Calibri,Calibri_MSFontService,sans-serif" font-style="normal" font-variant="normal" font-weight="400" font-stretch="normal" font-size="23" text-anchor="start" direction="ltr" writing-mode="lr-tb" unicode-bidi="normal" text-decoration="none" transform="matrix(0.384615 0 0 0.384224 182.987 219)">•</text><text fill="#FFFFFF" fill-opacity="1" font-family="Calibri,Calibri_MSFontService,sans-serif" font-style="normal" font-variant="normal" font-weight="400" font-stretch="normal" font-size="23" text-anchor="start" direction="ltr" writing-mode="lr-tb" unicode-bidi="normal" text-decoration="none" transform="matrix(0.384615 0 0 0.384224 189.477 219)">CDR Explorer</text><text fill="#FFFFFF" fill-opacity="1" font-family="Calibri,Calibri_MSFontService,sans-serif" font-style="normal" font-variant="normal" font-weight="400" font-stretch="normal" font-size="23" text-anchor="start" direction="ltr" writing-mode="lr-tb" unicode-bidi="normal" text-decoration="none" transform="matrix(0.384615 0 0 0.384224 182.987 230)">•</text><text fill="#FFFFFF" fill-opacity="1" font-family="Calibri,Calibri_MSFontService,sans-serif" font-style="normal" font-variant="normal" font-weight="400" font-stretch="normal" font-size="23" text-anchor="start" direction="ltr" writing-mode="lr-tb" unicode-bidi="normal" text-decoration="none" transform="matrix(0.384615 0 0 0.384224 189.477 230)">Speicherung von Med.</text><text fill="#FFFFFF" fill-opacity="1" font-family="Calibri,Calibri_MSFontService,sans-serif" font-style="normal" font-variant="normal" font-weight="400" font-stretch="normal" font-size="23" text-anchor="start" direction="ltr" writing-mode="lr-tb" unicode-bidi="normal" text-decoration="none" transform="matrix(0.384615 0 0 0.384224 271.285 230)">-</text><text fill="#FFFFFF" fill-opacity="1" font-family="Calibri,Calibri_MSFontService,sans-serif" font-style="normal" font-variant="normal" font-weight="400" font-stretch="normal" font-size="23" text-anchor="start" direction="ltr" writing-mode="lr-tb" unicode-bidi="normal" text-decoration="none" transform="matrix(0.384615 0 0 0.384224 274.01 230)">Daten*</text><path d="M32.5281 19.8898C32.6666 19.1385 32.6666 18.3713 32.5281 17.62L33.9027 16.8262C34.0626 16.7356 34.1318 16.5491 34.0785 16.3733 33.7216 15.2224 33.1088 14.1781 32.3096 13.3149 32.1871 13.1817 31.9899 13.1498 31.8301 13.2404L30.4554 14.0342C29.8747 13.5387 29.2087 13.1551 28.4894 12.8994L28.4894 11.3116C28.4894 11.1304 28.3615 10.9706 28.1857 10.9333 26.9975 10.6669 25.788 10.6775 24.6585 10.9333 24.4826 10.9706 24.3548 11.1304 24.3548 11.3116L24.3548 12.8994C23.6355 13.1551 22.9694 13.5387 22.3887 14.0342L21.0141 13.2404C20.8595 13.1498 20.6571 13.1817 20.5345 13.3149 19.7353 14.1781 19.1226 15.2224 18.7656 16.3733 18.7123 16.5491 18.7869 16.7356 18.9414 16.8262L20.3161 17.62C20.1775 18.3713 20.1775 19.1385 20.3161 19.8898L18.9414 20.6837C18.7816 20.7743 18.7123 20.9608 18.7656 21.1366 19.1226 22.2874 19.7353 23.3264 20.5345 24.1949 20.6571 24.3281 20.8542 24.3601 21.0141 24.2695L22.3887 23.4756C22.9694 23.9712 23.6355 24.3548 24.3548 24.6105L24.3548 26.1983C24.3548 26.3794 24.4826 26.5393 24.6585 26.5766 25.8466 26.843 27.0561 26.8324 28.1857 26.5766 28.3615 26.5393 28.4894 26.3794 28.4894 26.1983L28.4894 24.6105C29.2087 24.3548 29.8747 23.9712 30.4554 23.4756L31.8301 24.2695C31.9846 24.3601 32.1871 24.3281 32.3096 24.1949 33.1088 23.3318 33.7216 22.2874 34.0785 21.1366 34.1318 20.9608 34.0573 20.7743 33.9027 20.6837L32.5281 19.8898ZM26.4274 21.3391C24.9995 21.3391 23.8433 20.1775 23.8433 18.7549 23.8433 17.3323 25.0048 16.1708 26.4274 16.1708 27.85 16.1708 29.0115 17.3323 29.0115 18.7549 29.0115 20.1775 27.8554 21.3391 26.4274 21.3391ZM11.935 13.6399C15.7019 13.6399 18.7549 10.5869 18.7549 6.81997 18.7549 3.053 15.7019 0 11.935 0 8.16799 0 5.11498 3.053 5.11498 6.81997 5.11498 10.5869 8.16799 13.6399 11.935 13.6399ZM22.6551 25.7081C22.5325 25.6442 22.41 25.5696 22.2928 25.5003L21.8719 25.7454C21.5522 25.9265 21.1899 26.0278 20.8275 26.0278 20.2468 26.0278 19.6874 25.7827 19.2877 25.3564 18.3127 24.3015 17.5668 23.0174 17.1458 21.6481 16.8528 20.705 17.2471 19.7087 18.0996 19.2132L18.5205 18.9681C18.5152 18.8295 18.5152 18.691 18.5205 18.5524L18.0996 18.3074C17.2471 17.8172 16.8528 16.8155 17.1458 15.8724 17.1938 15.7179 17.2631 15.5634 17.3164 15.4089 17.1139 15.3929 16.9167 15.3449 16.7089 15.3449L15.8192 15.3449C14.6363 15.8884 13.3203 16.1974 11.935 16.1974 10.5496 16.1974 9.23893 15.8884 8.05076 15.3449L7.16097 15.3449C3.20752 15.3449 0 18.5524 0 22.5059L0 24.7224C0 26.1344 1.14554 27.2799 2.55749 27.2799L21.3124 27.2799C21.8505 27.2799 22.3514 27.1094 22.7617 26.827 22.6977 26.6245 22.6551 26.4167 22.6551 26.1983L22.6551 25.7081Z" fill="#E62249" fill-rule="nonzero" fill-opacity="1" transform="matrix(1.00384 0 0 1 127.692 185.58)"/><text fill="#FFFFFF" fill-opacity="1" font-family="PT Sans,PT Sans_MSFontService,sans-serif" font-style="normal" font-variant="normal" font-weight="400" font-stretch="normal" font-size="15" text-anchor="start" direction="ltr" writing-mode="lr-tb" unicode-bidi="normal" text-decoration="none" transform="matrix(0.384615 0 0 0.384224 121.166 219)">Mandanten</text><text fill="#FFFFFF" fill-opacity="1" font-family="PT Sans,PT Sans_MSFontService,sans-serif" font-style="normal" font-variant="normal" font-weight="400" font-stretch="normal" font-size="15" text-anchor="start" direction="ltr" writing-mode="lr-tb" unicode-bidi="normal" text-decoration="none" transform="matrix(0.384615 0 0 0.384224 148.89 219)">-</text><text fill="#FFFFFF" fill-opacity="1" font-family="PT Sans,PT Sans_MSFontService,sans-serif" font-style="normal" font-variant="normal" font-weight="400" font-stretch="normal" font-size="15" text-anchor="start" direction="ltr" writing-mode="lr-tb" unicode-bidi="normal" text-decoration="none" transform="matrix(0.384615 0 0 0.384224 150.974 219)">Admin</text><path d="M360.786 234.658C360.786 233.23 361.945 232.071 363.373 232.071L559.534 232.071C560.963 232.071 562.12 233.23 562.12 234.658L562.12 280.97C562.12 282.399 560.963 283.557 559.534 283.557L363.373 283.557C361.945 283.557 360.786 282.399 360.786 280.97Z" fill="#545453" fill-rule="evenodd" fill-opacity="1" transform="matrix(1.00102 0 0 1 -5.38462 -14.9847)"/><text fill="#FFFFFF" fill-opacity="1" font-family="Calibri,Calibri_MSFontService,sans-serif" font-style="normal" font-variant="normal" font-weight="400" font-stretch="normal" font-size="23" text-anchor="start" direction="ltr" writing-mode="lr-tb" unicode-bidi="normal" text-decoration="none" transform="matrix(0.384615 0 0 0.384224 430.381 246)">•</text><text fill="#FFFFFF" fill-opacity="1" font-family="Calibri,Calibri_MSFontService,sans-serif" font-style="normal" font-variant="normal" font-weight="400" font-stretch="normal" font-size="23" text-anchor="start" direction="ltr" writing-mode="lr-tb" unicode-bidi="normal" text-decoration="none" transform="matrix(0.384615 0 0 0.384224 436.869 246)">Template Verwaltung</text><path d="M414.578 255.317 411.888 255.317C411.515 255.317 411.216 255.618 411.216 255.989L411.216 258.679C411.216 259.05 411.515 259.351 411.888 259.351L414.578 259.351C414.95 259.351 415.25 259.05 415.25 258.679L415.25 255.989C415.25 255.618 414.95 255.317 414.578 255.317ZM410.543 249.265C410.543 248.894 410.244 248.593 409.871 248.593L407.181 248.593C406.809 248.593 406.509 248.894 406.509 249.265L406.509 251.955C406.509 252.326 406.809 252.627 407.181 252.627L409.191 252.627 410.732 255.318C410.962 254.917 411.392 254.644 411.888 254.644L411.896 254.644 410.543 252.281 410.543 251.282 415.25 251.282 415.25 249.938 410.543 249.938 410.543 249.265ZM419.284 248.593 416.595 248.593C416.222 248.593 415.922 248.894 415.922 249.265L415.922 251.955C415.922 252.326 416.222 252.627 416.595 252.627L419.284 252.627C419.657 252.627 419.957 252.326 419.957 251.955L419.957 249.265C419.957 248.894 419.657 248.593 419.284 248.593Z" fill="#E62249" fill-rule="nonzero" fill-opacity="1" transform="matrix(1.00102 0 0 1 -5.38462 -14.9847)"/><g><g><g><path d="M16.7273 16.7582 11.7308 21.7538 6.73419 16.7582C2.9903 16.9206 0 19.9842 0 23.7648 3.72108e-16 25.4484 1.36483 26.8132 3.04843 26.8132L20.4131 26.8132C22.0967 26.8132 23.4615 25.4484 23.4615 23.7648 23.4615 19.9842 20.4712 16.9206 16.7273 16.7582ZM11.7308 15.9203C15.4329 15.9203 18.4341 12.9192 18.4341 9.21704L18.4341 3.44696C18.4349 2.74774 18.0015 2.12148 17.3469 1.87588L12.9075 0.213144C12.1488-0.0713423 11.3128-0.0713423 10.554 0.213144L6.11465 1.87797C5.46073 2.1233 5.0275 2.7485 5.02746 3.44696L5.02746 9.21704C5.02746 12.9192 8.02865 15.9203 11.7308 15.9203ZM9.636 3.75332C9.636 3.60871 9.75323 3.49148 9.89785 3.49148L11.0327 3.49148 11.0327 2.35663C11.0327 2.21202 11.1499 2.09478 11.2945 2.09478L12.167 2.09478C12.3116 2.09478 12.4288 2.21202 12.4288 2.35663L12.4288 3.49148 13.5637 3.49148C13.7083 3.49148 13.8255 3.60871 13.8255 3.75332L13.8255 4.62581C13.8255 4.77042 13.7083 4.88765 13.5637 4.88765L12.4288 4.88765 12.4288 6.0225C12.4288 6.16708 12.3116 6.28435 12.167 6.28435L11.2945 6.28435C11.1499 6.28435 11.0327 6.16708 11.0327 6.0225L11.0327 4.88765 9.89785 4.88765C9.75323 4.88765 9.636 4.77042 9.636 4.62581ZM7.54119 8.37912 15.9203 8.37912 15.9203 9.21704C15.9203 11.5309 14.0446 13.4066 11.7308 13.4066 9.41692 13.4066 7.54119 11.5309 7.54119 9.21704Z" fill="#E62249" fill-rule="nonzero" fill-opacity="1" transform="matrix(1 0 0 1.0174 381.538 225.155)"/></g></g></g><text fill="#FFFFFF" fill-opacity="1" font-family="PT Sans,PT Sans_MSFontService,sans-serif" font-style="normal" font-variant="normal" font-weight="400" font-stretch="normal" font-size="15" text-anchor="start" direction="ltr" writing-mode="lr-tb" unicode-bidi="normal" text-decoration="none" transform="matrix(0.384615 0 0 0.384224 362.945 260)">Med. </text><text fill="#FFFFFF" fill-opacity="1" font-family="PT Sans,PT Sans_MSFontService,sans-serif" font-style="normal" font-variant="normal" font-weight="400" font-stretch="normal" font-size="15" text-anchor="start" direction="ltr" writing-mode="lr-tb" unicode-bidi="normal" text-decoration="none" transform="matrix(0.384615 0 0 0.384224 376.327 260)">Domänenexpert</text><text fill="#FFFFFF" fill-opacity="1" font-family="PT Sans,PT Sans_MSFontService,sans-serif" font-style="normal" font-variant="normal" font-weight="400" font-stretch="normal" font-size="15" text-anchor="start" direction="ltr" writing-mode="lr-tb" unicode-bidi="normal" text-decoration="none" transform="matrix(0.384615 0 0 0.384224 415.831 260)">*in</text><path d="M360.786 175.104C360.786 173.675 361.945 172.517 363.374 172.517L558.381 172.517C559.81 172.517 560.967 173.675 560.967 175.104L560.967 221.415C560.967 222.844 559.81 224.003 558.381 224.003L363.374 224.003C361.945 224.003 360.786 222.844 360.786 221.415Z" fill="#545453" fill-rule="evenodd" fill-opacity="1" transform="matrix(1.00102 0 0 1 -5.38462 -14.9847)"/><text fill="#FFFFFF" fill-opacity="1" font-family="Calibri,Calibri_MSFontService,sans-serif" font-style="normal" font-variant="normal" font-weight="400" font-stretch="normal" font-size="23" text-anchor="start" direction="ltr" writing-mode="lr-tb" unicode-bidi="normal" text-decoration="none" transform="matrix(0.384615 0 0 0.384224 430.381 170)">•</text><text fill="#FFFFFF" fill-opacity="1" font-family="Calibri,Calibri_MSFontService,sans-serif" font-style="normal" font-variant="normal" font-weight="400" font-stretch="normal" font-size="23" text-anchor="start" direction="ltr" writing-mode="lr-tb" unicode-bidi="normal" text-decoration="none" transform="matrix(0.384615 0 0 0.384224 436.869 170)">Nutzung bereitgestellter   </text><text fill="#FFFFFF" fill-opacity="1" font-family="Calibri,Calibri_MSFontService,sans-serif" font-style="normal" font-variant="normal" font-weight="400" font-stretch="normal" font-size="23" text-anchor="start" direction="ltr" writing-mode="lr-tb" unicode-bidi="normal" text-decoration="none" transform="matrix(0.384615 0 0 0.384224 438.392 181)">Applikationen im CDR</text><text fill="#FFFFFF" fill-opacity="1" font-family="Calibri,Calibri_MSFontService,sans-serif" font-style="normal" font-variant="normal" font-weight="400" font-stretch="normal" font-size="23" text-anchor="start" direction="ltr" writing-mode="lr-tb" unicode-bidi="normal" text-decoration="none" transform="matrix(0.384615 0 0 0.384224 430.381 192)">•</text><text fill="#FFFFFF" fill-opacity="1" font-family="Calibri,Calibri_MSFontService,sans-serif" font-style="normal" font-variant="normal" font-weight="400" font-stretch="normal" font-size="23" text-anchor="start" direction="ltr" writing-mode="lr-tb" unicode-bidi="normal" text-decoration="none" transform="matrix(0.384615 0 0 0.384224 436.869 192)">Patientenanlage*</text><text fill="#FFFFFF" fill-opacity="1" font-family="Calibri,Calibri_MSFontService,sans-serif" font-style="normal" font-variant="normal" font-weight="400" font-stretch="normal" font-size="23" text-anchor="start" direction="ltr" writing-mode="lr-tb" unicode-bidi="normal" text-decoration="none" transform="matrix(0.384615 0 0 0.384224 430.381 202)">•</text><text fill="#FFFFFF" fill-opacity="1" font-family="Calibri,Calibri_MSFontService,sans-serif" font-style="normal" font-variant="normal" font-weight="400" font-stretch="normal" font-size="23" text-anchor="start" direction="ltr" writing-mode="lr-tb" unicode-bidi="normal" text-decoration="none" transform="matrix(0.384615 0 0 0.384224 436.869 202)">Speicherung von Med.</text><text fill="#FFFFFF" fill-opacity="1" font-family="Calibri,Calibri_MSFontService,sans-serif" font-style="normal" font-variant="normal" font-weight="400" font-stretch="normal" font-size="23" text-anchor="start" direction="ltr" writing-mode="lr-tb" unicode-bidi="normal" text-decoration="none" transform="matrix(0.384615 0 0 0.384224 518.677 202)">-</text><text fill="#FFFFFF" fill-opacity="1" font-family="Calibri,Calibri_MSFontService,sans-serif" font-style="normal" font-variant="normal" font-weight="400" font-stretch="normal" font-size="23" text-anchor="start" direction="ltr" writing-mode="lr-tb" unicode-bidi="normal" text-decoration="none" transform="matrix(0.384615 0 0 0.384224 521.4 202)">Daten*</text><text fill="#FFFFFF" fill-opacity="1" font-family="PT Sans,PT Sans_MSFontService,sans-serif" font-style="normal" font-variant="normal" font-weight="400" font-stretch="normal" font-size="15" text-anchor="start" direction="ltr" writing-mode="lr-tb" unicode-bidi="normal" text-decoration="none" transform="matrix(0.384615 0 0 0.384224 372.728 196)">Fachkraft im </text><text fill="#FFFFFF" fill-opacity="1" font-family="PT Sans,PT Sans_MSFontService,sans-serif" font-style="normal" font-variant="normal" font-weight="400" font-stretch="normal" font-size="15" text-anchor="start" direction="ltr" writing-mode="lr-tb" unicode-bidi="normal" text-decoration="none" transform="matrix(0.384615 0 0 0.384224 365.036 203)">Gesundheitswesen</text><path d="M11.9231 13.6264C15.6863 13.6264 18.7363 10.5764 18.7363 6.81319 18.7363 3.04997 15.6863 0 11.9231 0 8.15985 0 5.10988 3.04997 5.10988 6.81319 5.10988 10.5764 8.15985 13.6264 11.9231 13.6264ZM5.53573 22.5687C5.53573 23.2766 6.10527 23.8462 6.81319 23.8462 7.52112 23.8462 8.09065 23.2766 8.09065 22.5687 8.09065 21.8607 7.52112 21.2912 6.81319 21.2912 6.10527 21.2912 5.53573 21.8607 5.53573 22.5687ZM17.033 15.3616 17.033 17.9698C18.9758 18.3637 20.4396 20.0883 20.4396 22.1428L20.4396 24.3625C20.4396 24.767 20.1521 25.1183 19.7529 25.1982L18.039 25.5388C17.8101 25.5867 17.5865 25.4377 17.5386 25.2035L17.3736 24.3678C17.3257 24.1389 17.4748 23.91 17.709 23.8675L18.7363 23.6598 18.7363 22.1428C18.7363 18.8002 13.6264 18.6777 13.6264 22.244L13.6264 23.6652 14.6537 23.8728C14.8825 23.9207 15.0316 24.1442 14.989 24.3731L14.824 25.2088C14.7761 25.4377 14.5525 25.5867 14.3237 25.5441L12.663 25.3206C12.2425 25.262 11.9284 24.9054 11.9284 24.4742L11.9284 22.1428C11.9284 20.0883 13.3922 18.369 15.335 17.9698L15.335 15.5639C15.2179 15.6011 15.1008 15.6224 14.9837 15.665 14.0256 16.0003 12.9983 16.1867 11.9284 16.1867 10.8585 16.1867 9.83123 16.0003 8.87312 15.665 8.47923 15.5266 8.08 15.4415 7.67015 15.3882L7.67015 19.7316C8.89973 20.0989 9.79927 21.2273 9.79927 22.574 9.79927 24.2187 8.46327 25.5548 6.8185 25.5548 5.17377 25.5548 3.83774 24.2187 3.83774 22.574 3.83774 21.2273 4.73731 20.0989 5.96685 19.7316L5.96685 15.4521C2.58156 16.0216 0 18.9385 0 22.4835L0 24.8681C0 26.1828 1.06988 27.2527 2.38462 27.2527L21.4615 27.2527C22.7763 27.2527 23.8462 26.1828 23.8462 24.8681L23.8462 22.4835C23.8462 18.6511 20.8228 15.5479 17.033 15.3616Z" fill="#E62249" fill-rule="nonzero" fill-opacity="1" transform="matrix(1 0 0 1.001 378.077 161.758)"/><path d="M6.33969 65.9597C6.33969 38.3374 28.7318 15.9453 56.3537 15.9453L558.788 15.9453C586.41 15.9453 608.803 38.3374 608.803 65.9597L608.803 266.01C608.803 293.632 586.41 316.024 558.788 316.024L56.3537 316.024C28.7318 316.024 6.33969 293.632 6.33969 266.01Z" stroke="#720035" stroke-width="1.92112" stroke-linecap="butt" stroke-linejoin="miter" stroke-miterlimit="8" stroke-opacity="1" fill="none" fill-rule="evenodd" transform="matrix(1.00102 0 0 1 -5.38462 -14.9847)"/><text fill="#720035" fill-opacity="1" font-family="PT Sans,PT Sans_MSFontService,sans-serif" font-style="normal" font-variant="normal" font-weight="700" font-stretch="normal" font-size="33" text-anchor="start" direction="ltr" writing-mode="lr-tb" unicode-bidi="normal" text-decoration="none" transform="matrix(0.384615 0 0 0.384224 20.0105 30)">System</text><path d="M109.888 25.4128C109.888 23.6853 111.289 22.285 113.016 22.285L342.289 22.285C344.017 22.285 345.417 23.6853 345.417 25.4128L345.417 81.4013C345.417 83.1288 344.017 84.5293 342.289 84.5293L113.016 84.5293C111.289 84.5293 109.888 83.1288 109.888 81.4013Z" fill="#545453" fill-rule="evenodd" fill-opacity="1" transform="matrix(1.00102 0 0 1 -5.38462 -14.9847)"/><text fill="#FFFFFF" fill-opacity="1" font-family="Calibri,Calibri_MSFontService,sans-serif" font-style="normal" font-variant="normal" font-weight="400" font-stretch="normal" font-size="23" text-anchor="start" direction="ltr" writing-mode="lr-tb" unicode-bidi="normal" text-decoration="none" transform="matrix(0.384615 0 0 0.384224 179.463 36)">•</text><text fill="#FFFFFF" fill-opacity="1" font-family="Calibri,Calibri_MSFontService,sans-serif" font-style="normal" font-variant="normal" font-weight="400" font-stretch="normal" font-size="23" text-anchor="start" direction="ltr" writing-mode="lr-tb" unicode-bidi="normal" text-decoration="none" transform="matrix(0.384615 0 0 0.384224 185.953 36)">Erstellt Organisationen</text><text fill="#FFFFFF" fill-opacity="1" font-family="Calibri,Calibri_MSFontService,sans-serif" font-style="normal" font-variant="normal" font-weight="400" font-stretch="normal" font-size="23" text-anchor="start" direction="ltr" writing-mode="lr-tb" unicode-bidi="normal" text-decoration="none" transform="matrix(0.384615 0 0 0.384224 179.463 47)">•</text><text fill="#FFFFFF" fill-opacity="1" font-family="Calibri,Calibri_MSFontService,sans-serif" font-style="normal" font-variant="normal" font-weight="400" font-stretch="normal" font-size="23" text-anchor="start" direction="ltr" writing-mode="lr-tb" unicode-bidi="normal" text-decoration="none" transform="matrix(0.384615 0 0 0.384224 185.953 47)">Erstellt Organisations</text><text fill="#FFFFFF" fill-opacity="1" font-family="Calibri,Calibri_MSFontService,sans-serif" font-style="normal" font-variant="normal" font-weight="400" font-stretch="normal" font-size="23" text-anchor="start" direction="ltr" writing-mode="lr-tb" unicode-bidi="normal" text-decoration="none" transform="matrix(0.384615 0 0 0.384224 263.437 47)">-</text><text fill="#FFFFFF" fill-opacity="1" font-family="Calibri,Calibri_MSFontService,sans-serif" font-style="normal" font-variant="normal" font-weight="400" font-stretch="normal" font-size="23" text-anchor="start" direction="ltr" writing-mode="lr-tb" unicode-bidi="normal" text-decoration="none" transform="matrix(0.384615 0 0 0.384224 266.162 47)">Administratoren</text><g><g><g><path d="M11.935 13.6399C15.7015 13.6399 18.7549 10.5865 18.7549 6.81997 18.7549 3.05341 15.7015-1.51434e-15 11.935-1.51434e-15 8.16841-3.02868e-15 5.11498 3.05341 5.11498 6.81997 5.11498 10.5865 8.16841 13.6399 11.935 13.6399ZM17.0499 17.0499C17.0538 16.4804 17.2023 15.9212 17.4815 15.4249 17.2258 15.3982 16.9754 15.3449 16.7089 15.3449L15.8192 15.3449C13.3544 16.4816 10.5155 16.4816 8.05076 15.3449L7.16097 15.3449C3.20644 15.3459 0.00088209 18.5514-3.25202e-07 22.5059L0 24.7224C-3.78585e-16 26.1349 1.14503 27.2799 2.55749 27.2799L17.5241 27.2799C17.2177 26.7637 17.054 26.1752 17.0499 25.5749ZM32.3949 15.3449 30.6899 15.3449 30.6899 11.0825C30.6899 8.72834 28.7815 6.81997 26.4274 6.81997 24.0733 6.81997 22.1649 8.72834 22.1649 11.0825L22.1649 15.3449 20.4599 15.3449C19.5183 15.3449 18.7549 16.1083 18.7549 17.0499L18.7549 25.5749C18.7549 26.5166 19.5183 27.2799 20.4599 27.2799L32.3949 27.2799C33.3365 27.2799 34.0999 26.5166 34.0999 25.5749L34.0999 17.0499C34.0999 16.1083 33.3365 15.3449 32.3949 15.3449ZM26.4274 23.0174C25.4858 23.0174 24.7224 22.2541 24.7224 21.3124 24.7224 20.3708 25.4858 19.6074 26.4274 19.6074 27.369 19.6074 28.1324 20.3708 28.1324 21.3124 28.1324 22.2541 27.369 23.0174 26.4274 23.0174ZM28.1324 15.3449 24.7224 15.3449 24.7224 11.0825C24.7224 10.1408 25.4858 9.37745 26.4274 9.37745 27.369 9.37745 28.1324 10.1408 28.1324 11.0825Z" fill="#E62249" fill-rule="nonzero" fill-opacity="1" transform="matrix(1.00384 0 0 1 127.692 19.2112)"/></g></g></g><text fill="#FFFFFF" fill-opacity="1" font-family="PT Sans,PT Sans_MSFontService,sans-serif" font-style="normal" font-variant="normal" font-weight="400" font-stretch="normal" font-size="15" text-anchor="start" direction="ltr" writing-mode="lr-tb" unicode-bidi="normal" text-decoration="none" transform="matrix(0.384615 0 0 0.384224 128.723 54)">Super</text><text fill="#FFFFFF" fill-opacity="1" font-family="PT Sans,PT Sans_MSFontService,sans-serif" font-style="normal" font-variant="normal" font-weight="400" font-stretch="normal" font-size="15" text-anchor="start" direction="ltr" writing-mode="lr-tb" unicode-bidi="normal" text-decoration="none" transform="matrix(0.384615 0 0 0.384224 142.905 54)">-</text><text fill="#FFFFFF" fill-opacity="1" font-family="PT Sans,PT Sans_MSFontService,sans-serif" font-style="normal" font-variant="normal" font-weight="400" font-stretch="normal" font-size="15" text-anchor="start" direction="ltr" writing-mode="lr-tb" unicode-bidi="normal" text-decoration="none" transform="matrix(0.384615 0 0 0.384224 144.988 54)">Admin</text></g></g></svg>